<svg xmlns="http://www.w3.org/2000/svg" viewBox="0 0 400 400">
  <path fill="#393F57" d="M0 0h400v400H0V0Z" />
  <path fill="#ebd8cf"
    d="M322.658 117.53c7.792-.694 17.072 2.172 22.482 6.166 4.739 4.002 8.236 10.303 8.775 22.399.39 5.286-5.049 22.853-12.898 44.966-10.324 29.086-21.869 63.739-33.289 74.886-13.653 13.017-29.86 16.941-48.258 16.71-8.588-.22-23.356-4.947-25.193-8.848 8.85-4.172 23.19-13.928 31.669-34.477 4.043-9.798 33.383-99.446 37.757-108.135 5.327-8.37 13.948-12.91 18.955-13.667Z" />
  <path fill="#f49d7b"
    d="M213.438 118.125c6.819 3.046 12.09 11.674 15.81 21.832 1.183 3.595 27.844 82.638 28.224 83.715 4.125 12.107 4.956 11.493 2.384 17.98-6.655 11.174-13.472 21.756-24.898 27.305-3.624 1.347-7.371.867-10.86-.945-12.358-9.948-18.602-30.104-23.399-41.438-2.548-6.151-28.41-70.651-26.168-86.633.881-13.155 11.145-19.676 18.278-22.043 6.751-2.241 14.621-2.241 20.629.227Zm-119.616 4.5c6.504 3.588 11.666 20.176 16.447 34.705 2.59 7.952 23.307 68.503 23.607 69.346 1.691 4.944 3.166 7.528 1.411 12.685-1.867 10.526-17.342 31.276-33.349 30.063-4.692-1.531-12.7-6.48-17.522-18.025-3.388-4.325-29.486-84.813-33.72-97.517-2.788-8.09-3.437-15.997 5.963-27.352 8.912-11.351 24.928-13.565 37.163-3.905Z" />
  <path fill="#EBD8CF"
    d="M164.917 161.735c.365-2.349 2.648-6.462 4.301-5.652 2.399 1.176 4.279 2.491 5.24 5.528 1.566 7.165 20.265 59.164 22.491 64.823 2.181 5.545 3.452 11.926.914 18.519-4.738 9.9-18.811 27.747-37.109 33.996-11.183 3.819-38.747 6.19-50.308-4.763 3.155-4.095 7.901-6.475 17.049-13.831 9.737-12.118 13.959-17.862 21.258-40.314 2.708-5.795 14.08-49.835 16.164-58.306Z" />
</svg>
